<?xml version="1.0" encoding="iso-8859-1"?>
<!-- Generator: Adobe Illustrator 19.0.0, SVG Export Plug-In . SVG Version: 6.00 Build 0)  -->
<svg version="1.1" id="Layer_1" xmlns="http://www.w3.org/2000/svg" xmlns:xlink="http://www.w3.org/1999/xlink" x="0px" y="0px"
	 viewBox="0 0 511.997 511.997" style="enable-background:new 0 0 511.997 511.997;" xml:space="preserve">
<g style="opacity:0.1;">
	<ellipse cx="256.005" cy="488.567" rx="199.509" ry="23.43"/>
</g>
<g>
	<path style="fill:#936B49;" d="M168.328,489.215c0,2.365-1.917,4.282-4.282,4.282h-14.484c-2.365,0-4.282-1.917-4.282-4.282
		l62.899-293.461c0-2.365,1.917-4.282,4.282-4.282h14.484c2.365,0,4.282,1.917,4.282,4.282L168.328,489.215z"/>
	<path style="fill:#936B49;" d="M343.65,489.215c0,2.365,1.917,4.282,4.282,4.282h14.484c2.365,0,4.282-1.917,4.282-4.282
		l-62.896-293.458c0-2.365-1.92-4.282-4.282-4.282h-14.484c-2.365,0-4.282,1.917-4.282,4.282L343.65,489.215z"/>
</g>
<path style="fill:#6B4F37;" d="M350.339,330.269c0,3.751-3.042,6.791-6.794,6.791H168.433c-3.751,0-6.791-3.042-6.791-6.791v-13.836
	c0-3.751,3.042-6.794,6.791-6.794h175.112c3.751,0,6.794,3.042,6.794,6.794V330.269z"/>
<path style="fill:#936B49;" d="M267.513,489.215c0,2.365-1.917,4.282-4.282,4.282h-14.484c-2.365,0-4.282-1.917-4.282-4.282V195.757
	c0-2.365,1.92-4.282,4.282-4.282h14.484c2.365,0,4.282,1.917,4.282,4.282V489.215z"/>
<rect x="56.483" style="fill:#6B4F37;" width="399.011" height="284.213"/>
<rect x="83.41" y="25.242" style="fill:#EBE2CF;" width="345.189" height="233.729"/>
<g style="opacity:0.4;">
	<g style="opacity:0.4;">
		<path d="M110.239,165.2h-1.59c-1.755,0-3.179-1.424-3.179-3.179c0-1.755,1.424-3.179,3.179-3.179h1.59
			c1.755,0,3.179,1.424,3.179,3.179C113.418,163.775,111.994,165.2,110.239,165.2z"/>
		<path d="M386.622,165.2h-3.249c-1.755,0-3.179-1.424-3.179-3.179c0-1.755,1.424-3.179,3.179-3.179h3.249
			c1.755,0,3.179,1.424,3.179,3.179C389.801,163.775,388.377,165.2,386.622,165.2z M370.364,165.2h-3.252
			c-1.755,0-3.179-1.424-3.179-3.179c0-1.755,1.424-3.179,3.179-3.179h3.252c1.755,0,3.179,1.424,3.179,3.179
			C373.543,163.775,372.122,165.2,370.364,165.2z M354.109,165.2h-3.252c-1.755,0-3.179-1.424-3.179-3.179
			c0-1.755,1.424-3.179,3.179-3.179h3.252c1.755,0,3.179,1.424,3.179,3.179C357.288,163.775,355.864,165.2,354.109,165.2z
			 M337.848,165.2h-3.252c-1.755,0-3.179-1.424-3.179-3.179c0-1.755,1.424-3.179,3.179-3.179h3.252c1.755,0,3.179,1.424,3.179,3.179
			C341.027,163.775,339.606,165.2,337.848,165.2z M321.593,165.2h-3.252c-1.755,0-3.179-1.424-3.179-3.179
			c0-1.755,1.424-3.179,3.179-3.179h3.252c1.755,0,3.179,1.424,3.179,3.179C324.772,163.775,323.348,165.2,321.593,165.2z
			 M305.332,165.2h-3.249c-1.755,0-3.179-1.424-3.179-3.179c0-1.755,1.424-3.179,3.179-3.179h3.249c1.755,0,3.179,1.424,3.179,3.179
			C308.511,163.775,307.09,165.2,305.332,165.2z M289.077,165.2h-3.252c-1.755,0-3.179-1.424-3.179-3.179
			c0-1.755,1.424-3.179,3.179-3.179h3.252c1.755,0,3.179,1.424,3.179,3.179C292.256,163.775,290.832,165.2,289.077,165.2z
			 M272.819,165.2h-3.252c-1.755,0-3.179-1.424-3.179-3.179c0-1.755,1.424-3.179,3.179-3.179h3.252c1.755,0,3.179,1.424,3.179,3.179
			C275.998,163.775,274.574,165.2,272.819,165.2z M256.561,165.2h-3.249c-1.755,0-3.179-1.424-3.179-3.179
			c0-1.755,1.424-3.179,3.179-3.179h3.249c1.755,0,3.179,1.424,3.179,3.179C259.74,163.775,258.316,165.2,256.561,165.2z
			 M240.303,165.2h-3.252c-1.755,0-3.179-1.424-3.179-3.179c0-1.755,1.424-3.179,3.179-3.179h3.252c1.755,0,3.179,1.424,3.179,3.179
			C243.482,163.775,242.058,165.2,240.303,165.2z M224.045,165.2h-3.252c-1.755,0-3.179-1.424-3.179-3.179
			c0-1.755,1.424-3.179,3.179-3.179h3.252c1.755,0,3.179,1.424,3.179,3.179C227.224,163.775,225.8,165.2,224.045,165.2z
			 M207.787,165.2h-3.252c-1.755,0-3.179-1.424-3.179-3.179c0-1.755,1.424-3.179,3.179-3.179h3.249c1.755,0,3.179,1.424,3.179,3.179
			C210.963,163.775,209.542,165.2,207.787,165.2z M191.529,165.2h-3.252c-1.755,0-3.179-1.424-3.179-3.179
			c0-1.755,1.424-3.179,3.179-3.179h3.252c1.755,0,3.179,1.424,3.179,3.179C194.708,163.775,193.284,165.2,191.529,165.2z
			 M175.271,165.2h-3.252c-1.755,0-3.179-1.424-3.179-3.179c0-1.755,1.424-3.179,3.179-3.179h3.252c1.755,0,3.179,1.424,3.179,3.179
			C178.45,163.775,177.029,165.2,175.271,165.2z M159.013,165.2h-3.249c-1.755,0-3.179-1.424-3.179-3.179
			c0-1.755,1.424-3.179,3.179-3.179h3.249c1.755,0,3.179,1.424,3.179,3.179C162.192,163.775,160.768,165.2,159.013,165.2z
			 M142.755,165.2h-3.252c-1.755,0-3.179-1.424-3.179-3.179c0-1.755,1.424-3.179,3.179-3.179h3.252c1.755,0,3.179,1.424,3.179,3.179
			C145.934,163.775,144.51,165.2,142.755,165.2z M126.497,165.2h-3.252c-1.755,0-3.179-1.424-3.179-3.179
			c0-1.755,1.424-3.179,3.179-3.179h3.252c1.755,0,3.179,1.424,3.179,3.179C129.676,163.775,128.255,165.2,126.497,165.2z"/>
		<path d="M401.22,165.2h-1.59c-1.755,0-3.179-1.424-3.179-3.179c0-1.755,1.424-3.179,3.179-3.179h1.59
			c1.755,0,3.179,1.424,3.179,3.179C404.4,163.775,402.975,165.2,401.22,165.2z"/>
	</g>
	<g style="opacity:0.4;">
		<path d="M108.131,204.989h-1.59c-1.755,0-3.179-1.424-3.179-3.179c0-1.755,1.424-3.179,3.179-3.179h1.59
			c1.755,0,3.179,1.424,3.179,3.179C111.31,203.565,109.886,204.989,108.131,204.989z"/>
		<path d="M384.514,204.989h-3.249c-1.755,0-3.179-1.424-3.179-3.179c0-1.755,1.424-3.179,3.179-3.179h3.249
			c1.755,0,3.179,1.424,3.179,3.179C387.693,203.565,386.269,204.989,384.514,204.989z M368.256,204.989h-3.252
			c-1.755,0-3.179-1.424-3.179-3.179c0-1.755,1.424-3.179,3.179-3.179h3.252c1.755,0,3.179,1.424,3.179,3.179
			C371.435,203.565,370.011,204.989,368.256,204.989z M351.998,204.989h-3.249c-1.755,0-3.179-1.424-3.179-3.179
			c0-1.755,1.424-3.179,3.179-3.179h3.249c1.755,0,3.179,1.424,3.179,3.179C355.177,203.565,353.753,204.989,351.998,204.989z
			 M335.74,204.989h-3.252c-1.755,0-3.179-1.424-3.179-3.179c0-1.755,1.424-3.179,3.179-3.179h3.252
			c1.755,0,3.179,1.424,3.179,3.179C338.919,203.565,337.495,204.989,335.74,204.989z M319.482,204.989h-3.252
			c-1.755,0-3.179-1.424-3.179-3.179c0-1.755,1.424-3.179,3.179-3.179h3.252c1.755,0,3.179,1.424,3.179,3.179
			C322.661,203.565,321.237,204.989,319.482,204.989z M303.224,204.989h-3.252c-1.755,0-3.179-1.424-3.179-3.179
			c0-1.755,1.424-3.179,3.179-3.179h3.249c1.755,0,3.179,1.424,3.179,3.179C306.4,203.565,304.979,204.989,303.224,204.989z
			 M286.966,204.989h-3.252c-1.755,0-3.179-1.424-3.179-3.179c0-1.755,1.424-3.179,3.179-3.179h3.252
			c1.755,0,3.179,1.424,3.179,3.179C290.145,203.565,288.721,204.989,286.966,204.989z M270.708,204.989h-3.252
			c-1.755,0-3.179-1.424-3.179-3.179c0-1.755,1.424-3.179,3.179-3.179h3.252c1.755,0,3.179,1.424,3.179,3.179
			C273.887,203.565,272.466,204.989,270.708,204.989z M254.45,204.989h-3.249c-1.755,0-3.179-1.424-3.179-3.179
			c0-1.755,1.424-3.179,3.179-3.179h3.249c1.755,0,3.179,1.424,3.179,3.179C257.629,203.565,256.205,204.989,254.45,204.989z
			 M238.192,204.989h-3.252c-1.755,0-3.179-1.424-3.179-3.179c0-1.755,1.424-3.179,3.179-3.179h3.252
			c1.755,0,3.179,1.424,3.179,3.179C241.371,203.565,239.947,204.989,238.192,204.989z M221.934,204.989h-3.252
			c-1.755,0-3.179-1.424-3.179-3.179c0-1.755,1.424-3.179,3.179-3.179h3.252c1.755,0,3.179,1.424,3.179,3.179
			C225.113,203.565,223.692,204.989,221.934,204.989z M205.676,204.989h-3.249c-1.755,0-3.179-1.424-3.179-3.179
			c0-1.755,1.424-3.179,3.179-3.179h3.249c1.755,0,3.179,1.424,3.179,3.179C208.855,203.565,207.431,204.989,205.676,204.989z
			 M189.418,204.989h-3.252c-1.755,0-3.179-1.424-3.179-3.179c0-1.755,1.424-3.179,3.179-3.179h3.252
			c1.755,0,3.179,1.424,3.179,3.179C192.597,203.565,191.176,204.989,189.418,204.989z M173.163,204.989h-3.252
			c-1.755,0-3.179-1.424-3.179-3.179c0-1.755,1.424-3.179,3.179-3.179h3.252c1.755,0,3.179,1.424,3.179,3.179
			C176.342,203.565,174.918,204.989,173.163,204.989z M156.902,204.989h-3.249c-1.755,0-3.179-1.424-3.179-3.179
			c0-1.755,1.424-3.179,3.179-3.179h3.249c1.755,0,3.179,1.424,3.179,3.179C160.081,203.565,158.66,204.989,156.902,204.989z
			 M140.647,204.989h-3.252c-1.755,0-3.179-1.424-3.179-3.179c0-1.755,1.424-3.179,3.179-3.179h3.252
			c1.755,0,3.179,1.424,3.179,3.179C143.826,203.565,142.402,204.989,140.647,204.989z M124.389,204.989h-3.252
			c-1.755,0-3.179-1.424-3.179-3.179c0-1.755,1.424-3.179,3.179-3.179h3.252c1.755,0,3.179,1.424,3.179,3.179
			C127.568,203.565,126.144,204.989,124.389,204.989z"/>
		<path d="M399.11,204.989h-1.59c-1.755,0-3.179-1.424-3.179-3.179c0-1.755,1.424-3.179,3.179-3.179h1.59
			c1.755,0,3.179,1.424,3.179,3.179C402.289,203.565,400.864,204.989,399.11,204.989z"/>
	</g>
	<g style="opacity:0.4;">
		<path d="M112.35,125.407h-1.59c-1.755,0-3.179-1.424-3.179-3.179s1.424-3.179,3.179-3.179h1.59c1.755,0,3.179,1.424,3.179,3.179
			S114.108,125.407,112.35,125.407z"/>
		<path d="M388.733,125.407h-3.252c-1.755,0-3.179-1.424-3.179-3.179s1.424-3.179,3.179-3.179h3.252
			c1.755,0,3.179,1.424,3.179,3.179S390.488,125.407,388.733,125.407z M372.475,125.407h-3.252c-1.755,0-3.179-1.424-3.179-3.179
			s1.424-3.179,3.179-3.179h3.252c1.755,0,3.179,1.424,3.179,3.179S374.23,125.407,372.475,125.407z M356.217,125.407h-3.249
			c-1.755,0-3.179-1.424-3.179-3.179s1.424-3.179,3.179-3.179h3.249c1.755,0,3.179,1.424,3.179,3.179
			S357.972,125.407,356.217,125.407z M339.959,125.407h-3.252c-1.755,0-3.179-1.424-3.179-3.179s1.424-3.179,3.179-3.179h3.252
			c1.755,0,3.179,1.424,3.179,3.179S341.714,125.407,339.959,125.407z M323.701,125.407h-3.252c-1.755,0-3.179-1.424-3.179-3.179
			s1.424-3.179,3.179-3.179h3.252c1.755,0,3.179,1.424,3.179,3.179S325.456,125.407,323.701,125.407z M307.443,125.407h-3.249
			c-1.755,0-3.179-1.424-3.179-3.179s1.424-3.179,3.179-3.179h3.249c1.755,0,3.179,1.424,3.179,3.179
			S309.198,125.407,307.443,125.407z M291.185,125.407h-3.252c-1.755,0-3.179-1.424-3.179-3.179s1.424-3.179,3.179-3.179h3.252
			c1.755,0,3.179,1.424,3.179,3.179S292.94,125.407,291.185,125.407z M274.927,125.407h-3.252c-1.755,0-3.179-1.424-3.179-3.179
			s1.424-3.179,3.179-3.179h3.252c1.755,0,3.179,1.424,3.179,3.179S276.685,125.407,274.927,125.407z M258.669,125.407h-3.249
			c-1.755,0-3.179-1.424-3.179-3.179s1.424-3.179,3.179-3.179h3.249c1.755,0,3.179,1.424,3.179,3.179
			S260.424,125.407,258.669,125.407z M242.411,125.407h-3.252c-1.755,0-3.179-1.424-3.179-3.179s1.424-3.179,3.179-3.179h3.252
			c1.755,0,3.179,1.424,3.179,3.179S244.169,125.407,242.411,125.407z M226.156,125.407h-3.252c-1.755,0-3.179-1.424-3.179-3.179
			s1.424-3.179,3.179-3.179h3.252c1.755,0,3.179,1.424,3.179,3.179S227.911,125.407,226.156,125.407z M209.895,125.407h-3.249
			c-1.755,0-3.179-1.424-3.179-3.179s1.424-3.179,3.179-3.179h3.249c1.755,0,3.179,1.424,3.179,3.179
			S211.653,125.407,209.895,125.407z M193.64,125.407h-3.252c-1.755,0-3.179-1.424-3.179-3.179s1.424-3.179,3.179-3.179h3.252
			c1.755,0,3.179,1.424,3.179,3.179S195.395,125.407,193.64,125.407z M177.382,125.407h-3.252c-1.755,0-3.179-1.424-3.179-3.179
			s1.424-3.179,3.179-3.179h3.252c1.755,0,3.179,1.424,3.179,3.179S179.137,125.407,177.382,125.407z M161.124,125.407h-3.249
			c-1.755,0-3.179-1.424-3.179-3.179s1.424-3.179,3.179-3.179h3.249c1.755,0,3.179,1.424,3.179,3.179
			S162.879,125.407,161.124,125.407z M144.866,125.407h-3.252c-1.755,0-3.179-1.424-3.179-3.179s1.424-3.179,3.179-3.179h3.252
			c1.755,0,3.179,1.424,3.179,3.179S146.621,125.407,144.866,125.407z M128.608,125.407h-3.252c-1.755,0-3.179-1.424-3.179-3.179
			s1.424-3.179,3.179-3.179h3.252c1.755,0,3.179,1.424,3.179,3.179S130.363,125.407,128.608,125.407z"/>
		<path d="M403.328,125.407h-1.59c-1.755,0-3.179-1.424-3.179-3.179s1.424-3.179,3.179-3.179h1.59c1.755,0,3.179,1.424,3.179,3.179
			S405.083,125.407,403.328,125.407z"/>
	</g>
	<g style="opacity:0.4;">
		<path d="M114.461,85.617h-1.59c-1.755,0-3.179-1.424-3.179-3.179c0-1.755,1.424-3.179,3.179-3.179h1.59
			c1.755,0,3.179,1.424,3.179,3.179C117.64,84.193,116.216,85.617,114.461,85.617z"/>
		<path d="M390.841,85.617h-3.249c-1.755,0-3.179-1.424-3.179-3.179c0-1.755,1.424-3.179,3.179-3.179h3.249
			c1.755,0,3.179,1.424,3.179,3.179C394.02,84.193,392.599,85.617,390.841,85.617z M374.586,85.617h-3.252
			c-1.755,0-3.179-1.424-3.179-3.179c0-1.755,1.424-3.179,3.179-3.179h3.252c1.755,0,3.179,1.424,3.179,3.179
			C377.765,84.193,376.341,85.617,374.586,85.617z M358.328,85.617h-3.252c-1.755,0-3.179-1.424-3.179-3.179
			c0-1.755,1.424-3.179,3.179-3.179h3.252c1.755,0,3.179,1.424,3.179,3.179C361.507,84.193,360.083,85.617,358.328,85.617z
			 M342.07,85.617h-3.252c-1.755,0-3.179-1.424-3.179-3.179c0-1.755,1.424-3.179,3.179-3.179h3.252c1.755,0,3.179,1.424,3.179,3.179
			C345.249,84.193,343.825,85.617,342.07,85.617z M325.812,85.617h-3.252c-1.755,0-3.179-1.424-3.179-3.179
			c0-1.755,1.424-3.179,3.179-3.179h3.252c1.755,0,3.179,1.424,3.179,3.179C328.991,84.193,327.567,85.617,325.812,85.617z
			 M309.554,85.617h-3.249c-1.755,0-3.179-1.424-3.179-3.179c0-1.755,1.424-3.179,3.179-3.179h3.249
			c1.755,0,3.179,1.424,3.179,3.179C312.733,84.193,311.309,85.617,309.554,85.617z M293.296,85.617h-3.252
			c-1.755,0-3.179-1.424-3.179-3.179c0-1.755,1.424-3.179,3.179-3.179h3.252c1.755,0,3.179,1.424,3.179,3.179
			C296.475,84.193,295.051,85.617,293.296,85.617z M277.038,85.617h-3.252c-1.755,0-3.179-1.424-3.179-3.179
			c0-1.755,1.424-3.179,3.179-3.179h3.252c1.755,0,3.179,1.424,3.179,3.179C280.217,84.193,278.793,85.617,277.038,85.617z
			 M260.78,85.617h-3.249c-1.755,0-3.179-1.424-3.179-3.179c0-1.755,1.424-3.179,3.179-3.179h3.249c1.755,0,3.179,1.424,3.179,3.179
			C263.959,84.193,262.535,85.617,260.78,85.617z M244.522,85.617h-3.252c-1.755,0-3.179-1.424-3.179-3.179
			c0-1.755,1.424-3.179,3.179-3.179h3.252c1.755,0,3.179,1.424,3.179,3.179C247.701,84.193,246.277,85.617,244.522,85.617z
			 M228.264,85.617h-3.252c-1.755,0-3.179-1.424-3.179-3.179c0-1.755,1.424-3.179,3.179-3.179h3.252
			c1.755,0,3.179,1.424,3.179,3.179C231.443,84.193,230.019,85.617,228.264,85.617z M212.006,85.617h-3.249
			c-1.755,0-3.179-1.424-3.179-3.179c0-1.755,1.424-3.179,3.179-3.179h3.249c1.755,0,3.179,1.424,3.179,3.179
			C215.185,84.193,213.761,85.617,212.006,85.617z M195.748,85.617h-3.252c-1.755,0-3.179-1.424-3.179-3.179
			c0-1.755,1.424-3.179,3.179-3.179h3.252c1.755,0,3.179,1.424,3.179,3.179C198.927,84.193,197.503,85.617,195.748,85.617z
			 M179.49,85.617h-3.252c-1.755,0-3.179-1.424-3.179-3.179c0-1.755,1.424-3.179,3.179-3.179h3.252c1.755,0,3.179,1.424,3.179,3.179
			C182.669,84.193,181.248,85.617,179.49,85.617z M163.232,85.617h-3.249c-1.755,0-3.179-1.424-3.179-3.179
			c0-1.755,1.424-3.179,3.179-3.179h3.249c1.755,0,3.179,1.424,3.179,3.179C166.411,84.193,164.987,85.617,163.232,85.617z
			 M146.974,85.617h-3.252c-1.755,0-3.179-1.424-3.179-3.179c0-1.755,1.424-3.179,3.179-3.179h3.252
			c1.755,0,3.179,1.424,3.179,3.179C150.153,84.193,148.732,85.617,146.974,85.617z M130.719,85.617h-3.252
			c-1.755,0-3.179-1.424-3.179-3.179c0-1.755,1.424-3.179,3.179-3.179h3.252c1.755,0,3.179,1.424,3.179,3.179
			C133.898,84.193,132.474,85.617,130.719,85.617z"/>
		<path d="M405.439,85.617h-1.59c-1.755,0-3.179-1.424-3.179-3.179c0-1.755,1.424-3.179,3.179-3.179h1.59
			c1.755,0,3.179,1.424,3.179,3.179C408.618,84.193,407.194,85.617,405.439,85.617z"/>
	</g>
</g>
<path style="fill:#D22C19;" d="M211.017,207.879L128.3,166.281c-2.353-1.183-3.303-4.047-2.117-6.403
	c1.183-2.353,4.047-3.303,6.403-2.117l75.526,37.981l59.303-80.584l45.105,40.693l71.791-76.674c1.796-1.92,4.816-2.022,6.74-0.219
	c1.92,1.799,2.022,4.816,0.219,6.74l-78.19,83.509l-44.234-39.907L211.017,207.879z"/>
<g>
	<circle style="fill:#4275CC;" cx="124.707" cy="162.021" r="12.116"/>
	<circle style="fill:#4275CC;" cx="209.211" cy="201.81" r="12.116"/>
	<circle style="fill:#4275CC;" cx="268.626" cy="121.315" r="12.116"/>
	<circle style="fill:#4275CC;" cx="315.422" cy="162.021" r="12.116"/>
	<circle style="fill:#4275CC;" cx="387.779" cy="82.438" r="11.591"/>
</g>
<g>
</g>
<g>
</g>
<g>
</g>
<g>
</g>
<g>
</g>
<g>
</g>
<g>
</g>
<g>
</g>
<g>
</g>
<g>
</g>
<g>
</g>
<g>
</g>
<g>
</g>
<g>
</g>
<g>
</g>
</svg>
